<?xml version="1.0" encoding="utf-8" standalone="no"?>
<!DOCTYPE svg PUBLIC "-//W3C//DTD SVG 1.1//EN"
  "http://www.w3.org/Graphics/SVG/1.1/DTD/svg11.dtd">
<svg xmlns:xlink="http://www.w3.org/1999/xlink" width="622.392344pt" height="384.380156pt" viewBox="0 0 622.392344 384.380156" xmlns="http://www.w3.org/2000/svg" version="1.1">
 <metadata>
  <rdf:RDF xmlns:dc="http://purl.org/dc/elements/1.1/" xmlns:cc="http://creativecommons.org/ns#" xmlns:rdf="http://www.w3.org/1999/02/22-rdf-syntax-ns#">
   <cc:Work>
    <dc:type rdf:resource="http://purl.org/dc/dcmitype/StillImage"/>
    <dc:date>2025-11-03T17:35:59.699074</dc:date>
    <dc:format>image/svg+xml</dc:format>
    <dc:creator>
     <cc:Agent>
      <dc:title>Matplotlib v3.10.0, https://matplotlib.org/</dc:title>
     </cc:Agent>
    </dc:creator>
   </cc:Work>
  </rdf:RDF>
 </metadata>
 <defs>
  <style type="text/css">*{stroke-linejoin: round; stroke-linecap: butt}</style>
 </defs>
 <g id="figure_1">
  <g id="patch_1">
   <path d="M 0 384.380156 
L 622.392344 384.380156 
L 622.392344 0 
L 0 0 
L 0 384.380156 
z
" style="fill: none"/>
  </g>
  <g id="axes_1">
   <g id="patch_2">
    <path d="M 57.192344 339.84 
L 615.192344 339.84 
L 615.192344 7.2 
L 57.192344 7.2 
L 57.192344 339.84 
z
" style="fill: none"/>
   </g>
   <g id="matplotlib.axis_1">
    <g id="xtick_1">
     <g id="line2d_1">
      <path d="M 57.192344 339.84 
L 57.192344 7.2 
" clip-path="url(#p435ec12f3c)" style="fill: none; stroke-dasharray: 2.96,1.28; stroke-dashoffset: 0; stroke: #808080; stroke-opacity: 0.2; stroke-width: 0.8"/>
     </g>
     <g id="line2d_2">
      <defs>
       <path id="m401144740c" d="M 0 0 
L 0 3.5 
" style="stroke: #000000; stroke-width: 0.8"/>
      </defs>
      <g>
       <use xlink:href="#m401144740c" x="57.192344" y="339.84" style="stroke: #000000; stroke-width: 0.8"/>
      </g>
     </g>
     <g id="text_1">
      <!-- 0 -->
      <g transform="translate(53.692344 356.56125) scale(0.14 -0.14)">
       <defs>
        <path id="TimesNewRomanPSMT-30" d="M 231 2094 
Q 231 2819 450 3342 
Q 669 3866 1031 4122 
Q 1313 4325 1613 4325 
Q 2100 4325 2488 3828 
Q 2972 3213 2972 2159 
Q 2972 1422 2759 906 
Q 2547 391 2217 158 
Q 1888 -75 1581 -75 
Q 975 -75 572 641 
Q 231 1244 231 2094 
z
M 844 2016 
Q 844 1141 1059 588 
Q 1238 122 1591 122 
Q 1759 122 1940 273 
Q 2122 425 2216 781 
Q 2359 1319 2359 2297 
Q 2359 3022 2209 3506 
Q 2097 3866 1919 4016 
Q 1791 4119 1609 4119 
Q 1397 4119 1231 3928 
Q 1006 3669 925 3112 
Q 844 2556 844 2016 
z
" transform="scale(0.015625)"/>
       </defs>
       <use xlink:href="#TimesNewRomanPSMT-30"/>
      </g>
     </g>
    </g>
    <g id="xtick_2">
     <g id="line2d_3">
      <path d="M 162.425724 339.84 
L 162.425724 7.2 
" clip-path="url(#p435ec12f3c)" style="fill: none; stroke-dasharray: 2.96,1.28; stroke-dashoffset: 0; stroke: #808080; stroke-opacity: 0.2; stroke-width: 0.8"/>
     </g>
     <g id="line2d_4">
      <g>
       <use xlink:href="#m401144740c" x="162.425724" y="339.84" style="stroke: #000000; stroke-width: 0.8"/>
      </g>
     </g>
     <g id="text_2">
      <!-- 20 -->
      <g transform="translate(155.425724 356.56125) scale(0.14 -0.14)">
       <defs>
        <path id="TimesNewRomanPSMT-32" d="M 2934 816 
L 2638 0 
L 138 0 
L 138 116 
Q 1241 1122 1691 1759 
Q 2141 2397 2141 2925 
Q 2141 3328 1894 3587 
Q 1647 3847 1303 3847 
Q 991 3847 742 3664 
Q 494 3481 375 3128 
L 259 3128 
Q 338 3706 661 4015 
Q 984 4325 1469 4325 
Q 1984 4325 2329 3994 
Q 2675 3663 2675 3213 
Q 2675 2891 2525 2569 
Q 2294 2063 1775 1497 
Q 997 647 803 472 
L 1909 472 
Q 2247 472 2383 497 
Q 2519 522 2628 598 
Q 2738 675 2819 816 
L 2934 816 
z
" transform="scale(0.015625)"/>
       </defs>
       <use xlink:href="#TimesNewRomanPSMT-32"/>
       <use xlink:href="#TimesNewRomanPSMT-30" transform="translate(50 0)"/>
      </g>
     </g>
    </g>
    <g id="xtick_3">
     <g id="line2d_5">
      <path d="M 267.659105 339.84 
L 267.659105 7.2 
" clip-path="url(#p435ec12f3c)" style="fill: none; stroke-dasharray: 2.96,1.28; stroke-dashoffset: 0; stroke: #808080; stroke-opacity: 0.2; stroke-width: 0.8"/>
     </g>
     <g id="line2d_6">
      <g>
       <use xlink:href="#m401144740c" x="267.659105" y="339.84" style="stroke: #000000; stroke-width: 0.8"/>
      </g>
     </g>
     <g id="text_3">
      <!-- 40 -->
      <g transform="translate(260.659105 356.56125) scale(0.14 -0.14)">
       <defs>
        <path id="TimesNewRomanPSMT-34" d="M 2978 1563 
L 2978 1119 
L 2409 1119 
L 2409 0 
L 1894 0 
L 1894 1119 
L 100 1119 
L 100 1519 
L 2066 4325 
L 2409 4325 
L 2409 1563 
L 2978 1563 
z
M 1894 1563 
L 1894 3666 
L 406 1563 
L 1894 1563 
z
" transform="scale(0.015625)"/>
       </defs>
       <use xlink:href="#TimesNewRomanPSMT-34"/>
       <use xlink:href="#TimesNewRomanPSMT-30" transform="translate(50 0)"/>
      </g>
     </g>
    </g>
    <g id="xtick_4">
     <g id="line2d_7">
      <path d="M 372.892485 339.84 
L 372.892485 7.2 
" clip-path="url(#p435ec12f3c)" style="fill: none; stroke-dasharray: 2.96,1.28; stroke-dashoffset: 0; stroke: #808080; stroke-opacity: 0.2; stroke-width: 0.8"/>
     </g>
     <g id="line2d_8">
      <g>
       <use xlink:href="#m401144740c" x="372.892485" y="339.84" style="stroke: #000000; stroke-width: 0.8"/>
      </g>
     </g>
     <g id="text_4">
      <!-- 60 -->
      <g transform="translate(365.892485 356.56125) scale(0.14 -0.14)">
       <defs>
        <path id="TimesNewRomanPSMT-36" d="M 2869 4325 
L 2869 4209 
Q 2456 4169 2195 4045 
Q 1934 3922 1679 3669 
Q 1425 3416 1258 3105 
Q 1091 2794 978 2366 
Q 1428 2675 1881 2675 
Q 2316 2675 2634 2325 
Q 2953 1975 2953 1425 
Q 2953 894 2631 456 
Q 2244 -75 1606 -75 
Q 1172 -75 869 213 
Q 275 772 275 1663 
Q 275 2231 503 2743 
Q 731 3256 1154 3653 
Q 1578 4050 1965 4187 
Q 2353 4325 2688 4325 
L 2869 4325 
z
M 925 2138 
Q 869 1716 869 1456 
Q 869 1156 980 804 
Q 1091 453 1309 247 
Q 1469 100 1697 100 
Q 1969 100 2183 356 
Q 2397 613 2397 1088 
Q 2397 1622 2184 2012 
Q 1972 2403 1581 2403 
Q 1463 2403 1327 2353 
Q 1191 2303 925 2138 
z
" transform="scale(0.015625)"/>
       </defs>
       <use xlink:href="#TimesNewRomanPSMT-36"/>
       <use xlink:href="#TimesNewRomanPSMT-30" transform="translate(50 0)"/>
      </g>
     </g>
    </g>
    <g id="xtick_5">
     <g id="line2d_9">
      <path d="M 478.125866 339.84 
L 478.125866 7.2 
" clip-path="url(#p435ec12f3c)" style="fill: none; stroke-dasharray: 2.96,1.28; stroke-dashoffset: 0; stroke: #808080; stroke-opacity: 0.2; stroke-width: 0.8"/>
     </g>
     <g id="line2d_10">
      <g>
       <use xlink:href="#m401144740c" x="478.125866" y="339.84" style="stroke: #000000; stroke-width: 0.8"/>
      </g>
     </g>
     <g id="text_5">
      <!-- 80 -->
      <g transform="translate(471.125866 356.56125) scale(0.14 -0.14)">
       <defs>
        <path id="TimesNewRomanPSMT-38" d="M 1228 2134 
Q 725 2547 579 2797 
Q 434 3047 434 3316 
Q 434 3728 753 4026 
Q 1072 4325 1600 4325 
Q 2113 4325 2425 4047 
Q 2738 3769 2738 3413 
Q 2738 3175 2569 2928 
Q 2400 2681 1866 2347 
Q 2416 1922 2594 1678 
Q 2831 1359 2831 1006 
Q 2831 559 2490 242 
Q 2150 -75 1597 -75 
Q 994 -75 656 303 
Q 388 606 388 966 
Q 388 1247 577 1523 
Q 766 1800 1228 2134 
z
M 1719 2469 
Q 2094 2806 2194 3001 
Q 2294 3197 2294 3444 
Q 2294 3772 2109 3958 
Q 1925 4144 1606 4144 
Q 1288 4144 1088 3959 
Q 888 3775 888 3528 
Q 888 3366 970 3203 
Q 1053 3041 1206 2894 
L 1719 2469 
z
M 1375 2016 
Q 1116 1797 991 1539 
Q 866 1281 866 981 
Q 866 578 1086 336 
Q 1306 94 1647 94 
Q 1984 94 2187 284 
Q 2391 475 2391 747 
Q 2391 972 2272 1150 
Q 2050 1481 1375 2016 
z
" transform="scale(0.015625)"/>
       </defs>
       <use xlink:href="#TimesNewRomanPSMT-38"/>
       <use xlink:href="#TimesNewRomanPSMT-30" transform="translate(50 0)"/>
      </g>
     </g>
    </g>
    <g id="xtick_6">
     <g id="line2d_11">
      <path d="M 583.359246 339.84 
L 583.359246 7.2 
" clip-path="url(#p435ec12f3c)" style="fill: none; stroke-dasharray: 2.96,1.28; stroke-dashoffset: 0; stroke: #808080; stroke-opacity: 0.2; stroke-width: 0.8"/>
     </g>
     <g id="line2d_12">
      <g>
       <use xlink:href="#m401144740c" x="583.359246" y="339.84" style="stroke: #000000; stroke-width: 0.8"/>
      </g>
     </g>
     <g id="text_6">
      <!-- 100 -->
      <g transform="translate(572.859246 356.56125) scale(0.14 -0.14)">
       <defs>
        <path id="TimesNewRomanPSMT-31" d="M 750 3822 
L 1781 4325 
L 1884 4325 
L 1884 747 
Q 1884 391 1914 303 
Q 1944 216 2037 169 
Q 2131 122 2419 116 
L 2419 0 
L 825 0 
L 825 116 
Q 1125 122 1212 167 
Q 1300 213 1334 289 
Q 1369 366 1369 747 
L 1369 3034 
Q 1369 3497 1338 3628 
Q 1316 3728 1258 3775 
Q 1200 3822 1119 3822 
Q 1003 3822 797 3725 
L 750 3822 
z
" transform="scale(0.015625)"/>
       </defs>
       <use xlink:href="#TimesNewRomanPSMT-31"/>
       <use xlink:href="#TimesNewRomanPSMT-30" transform="translate(50 0)"/>
       <use xlink:href="#TimesNewRomanPSMT-30" transform="translate(100 0)"/>
      </g>
     </g>
    </g>
    <g id="text_7">
     <!-- Epoch -->
     <g transform="translate(317.032188 373.971563) scale(0.15 -0.15)">
      <defs>
       <path id="TimesNewRomanPSMT-45" d="M 1338 4006 
L 1338 2331 
L 2269 2331 
Q 2631 2331 2753 2441 
Q 2916 2584 2934 2947 
L 3050 2947 
L 3050 1472 
L 2934 1472 
Q 2891 1781 2847 1869 
Q 2791 1978 2662 2040 
Q 2534 2103 2269 2103 
L 1338 2103 
L 1338 706 
Q 1338 425 1363 364 
Q 1388 303 1450 267 
Q 1513 231 1688 231 
L 2406 231 
Q 2766 231 2928 281 
Q 3091 331 3241 478 
Q 3434 672 3638 1063 
L 3763 1063 
L 3397 0 
L 131 0 
L 131 116 
L 281 116 
Q 431 116 566 188 
Q 666 238 702 338 
Q 738 438 738 747 
L 738 3500 
Q 738 3903 656 3997 
Q 544 4122 281 4122 
L 131 4122 
L 131 4238 
L 3397 4238 
L 3444 3309 
L 3322 3309 
Q 3256 3644 3176 3769 
Q 3097 3894 2941 3959 
Q 2816 4006 2500 4006 
L 1338 4006 
z
" transform="scale(0.015625)"/>
       <path id="TimesNewRomanPSMT-70" d="M -6 2578 
L 875 2934 
L 994 2934 
L 994 2266 
Q 1216 2644 1439 2795 
Q 1663 2947 1909 2947 
Q 2341 2947 2628 2609 
Q 2981 2197 2981 1534 
Q 2981 794 2556 309 
Q 2206 -88 1675 -88 
Q 1444 -88 1275 -22 
Q 1150 25 994 166 
L 994 -706 
Q 994 -1000 1030 -1079 
Q 1066 -1159 1155 -1206 
Q 1244 -1253 1478 -1253 
L 1478 -1369 
L -22 -1369 
L -22 -1253 
L 56 -1253 
Q 228 -1256 350 -1188 
Q 409 -1153 442 -1076 
Q 475 -1000 475 -688 
L 475 2019 
Q 475 2297 450 2372 
Q 425 2447 370 2484 
Q 316 2522 222 2522 
Q 147 2522 31 2478 
L -6 2578 
z
M 994 2081 
L 994 1013 
Q 994 666 1022 556 
Q 1066 375 1236 237 
Q 1406 100 1666 100 
Q 1978 100 2172 344 
Q 2425 663 2425 1241 
Q 2425 1897 2138 2250 
Q 1938 2494 1663 2494 
Q 1513 2494 1366 2419 
Q 1253 2363 994 2081 
z
" transform="scale(0.015625)"/>
       <path id="TimesNewRomanPSMT-6f" d="M 1600 2947 
Q 2250 2947 2644 2453 
Q 2978 2031 2978 1484 
Q 2978 1100 2793 706 
Q 2609 313 2286 112 
Q 1963 -88 1566 -88 
Q 919 -88 538 428 
Q 216 863 216 1403 
Q 216 1797 411 2186 
Q 606 2575 925 2761 
Q 1244 2947 1600 2947 
z
M 1503 2744 
Q 1338 2744 1170 2645 
Q 1003 2547 900 2300 
Q 797 2053 797 1666 
Q 797 1041 1045 587 
Q 1294 134 1700 134 
Q 2003 134 2200 384 
Q 2397 634 2397 1244 
Q 2397 2006 2069 2444 
Q 1847 2744 1503 2744 
z
" transform="scale(0.015625)"/>
       <path id="TimesNewRomanPSMT-63" d="M 2631 1088 
Q 2516 522 2178 217 
Q 1841 -88 1431 -88 
Q 944 -88 581 321 
Q 219 731 219 1428 
Q 219 2103 620 2525 
Q 1022 2947 1584 2947 
Q 2006 2947 2278 2723 
Q 2550 2500 2550 2259 
Q 2550 2141 2473 2067 
Q 2397 1994 2259 1994 
Q 2075 1994 1981 2113 
Q 1928 2178 1911 2362 
Q 1894 2547 1784 2644 
Q 1675 2738 1481 2738 
Q 1169 2738 978 2506 
Q 725 2200 725 1697 
Q 725 1184 976 792 
Q 1228 400 1656 400 
Q 1963 400 2206 609 
Q 2378 753 2541 1131 
L 2631 1088 
z
" transform="scale(0.015625)"/>
       <path id="TimesNewRomanPSMT-68" d="M 1041 4444 
L 1041 2350 
Q 1388 2731 1591 2839 
Q 1794 2947 1997 2947 
Q 2241 2947 2416 2812 
Q 2591 2678 2675 2391 
Q 2734 2191 2734 1659 
L 2734 647 
Q 2734 375 2778 275 
Q 2809 200 2884 156 
Q 2959 113 3159 113 
L 3159 0 
L 1753 0 
L 1753 113 
L 1819 113 
Q 2019 113 2097 173 
Q 2175 234 2206 353 
Q 2216 403 2216 647 
L 2216 1659 
Q 2216 2128 2167 2275 
Q 2119 2422 2012 2495 
Q 1906 2569 1756 2569 
Q 1603 2569 1437 2487 
Q 1272 2406 1041 2159 
L 1041 647 
Q 1041 353 1073 281 
Q 1106 209 1195 161 
Q 1284 113 1503 113 
L 1503 0 
L 84 0 
L 84 113 
Q 275 113 384 172 
Q 447 203 484 290 
Q 522 378 522 647 
L 522 3238 
Q 522 3728 498 3840 
Q 475 3953 426 3993 
Q 378 4034 297 4034 
Q 231 4034 84 3984 
L 41 4094 
L 897 4444 
L 1041 4444 
z
" transform="scale(0.015625)"/>
      </defs>
      <use xlink:href="#TimesNewRomanPSMT-45"/>
      <use xlink:href="#TimesNewRomanPSMT-70" transform="translate(61.083984 0)"/>
      <use xlink:href="#TimesNewRomanPSMT-6f" transform="translate(111.083984 0)"/>
      <use xlink:href="#TimesNewRomanPSMT-63" transform="translate(161.083984 0)"/>
      <use xlink:href="#TimesNewRomanPSMT-68" transform="translate(205.46875 0)"/>
     </g>
    </g>
   </g>
   <g id="matplotlib.axis_2">
    <g id="ytick_1">
     <g id="line2d_13">
      <path d="M 57.192344 300.780222 
L 615.192344 300.780222 
" clip-path="url(#p435ec12f3c)" style="fill: none; stroke-dasharray: 2.96,1.28; stroke-dashoffset: 0; stroke: #808080; stroke-opacity: 0.2; stroke-width: 0.8"/>
     </g>
     <g id="line2d_14">
      <defs>
       <path id="mfcb1da0047" d="M 0 0 
L -3.5 0 
" style="stroke: #000000; stroke-width: 0.8"/>
      </defs>
      <g>
       <use xlink:href="#mfcb1da0047" x="57.192344" y="300.780222" style="stroke: #000000; stroke-width: 0.8"/>
      </g>
     </g>
     <g id="text_8">
      <!-- $\mathdefault{10^{-6}}$ -->
      <g transform="translate(24.852344 306.982878) scale(0.14 -0.14)">
       <defs>
        <path id="TimesNewRomanPSMT-2212" d="M 3484 2000 
L 116 2000 
L 116 2256 
L 3484 2256 
L 3484 2000 
z
" transform="scale(0.015625)"/>
       </defs>
       <use xlink:href="#TimesNewRomanPSMT-31" transform="translate(0 0.582813)"/>
       <use xlink:href="#TimesNewRomanPSMT-30" transform="translate(50 0.582813)"/>
       <use xlink:href="#TimesNewRomanPSMT-2212" transform="translate(101.502813 60.695312) scale(0.7)"/>
       <use xlink:href="#TimesNewRomanPSMT-36" transform="translate(140.980352 60.695312) scale(0.7)"/>
      </g>
     </g>
    </g>
    <g id="ytick_2">
     <g id="line2d_15">
      <path d="M 57.192344 192.251029 
L 615.192344 192.251029 
" clip-path="url(#p435ec12f3c)" style="fill: none; stroke-dasharray: 2.96,1.28; stroke-dashoffset: 0; stroke: #808080; stroke-opacity: 0.2; stroke-width: 0.8"/>
     </g>
     <g id="line2d_16">
      <g>
       <use xlink:href="#mfcb1da0047" x="57.192344" y="192.251029" style="stroke: #000000; stroke-width: 0.8"/>
      </g>
     </g>
     <g id="text_9">
      <!-- $\mathdefault{10^{-5}}$ -->
      <g transform="translate(24.852344 198.383685) scale(0.14 -0.14)">
       <defs>
        <path id="TimesNewRomanPSMT-35" d="M 2778 4238 
L 2534 3706 
L 1259 3706 
L 981 3138 
Q 1809 3016 2294 2522 
Q 2709 2097 2709 1522 
Q 2709 1188 2573 903 
Q 2438 619 2231 419 
Q 2025 219 1772 97 
Q 1413 -75 1034 -75 
Q 653 -75 479 54 
Q 306 184 306 341 
Q 306 428 378 495 
Q 450 563 559 563 
Q 641 563 702 538 
Q 763 513 909 409 
Q 1144 247 1384 247 
Q 1750 247 2026 523 
Q 2303 800 2303 1197 
Q 2303 1581 2056 1914 
Q 1809 2247 1375 2428 
Q 1034 2569 447 2591 
L 1259 4238 
L 2778 4238 
z
" transform="scale(0.015625)"/>
       </defs>
       <use xlink:href="#TimesNewRomanPSMT-31" transform="translate(0 0.534375)"/>
       <use xlink:href="#TimesNewRomanPSMT-30" transform="translate(50 0.534375)"/>
       <use xlink:href="#TimesNewRomanPSMT-2212" transform="translate(101.502813 60.646875) scale(0.7)"/>
       <use xlink:href="#TimesNewRomanPSMT-35" transform="translate(140.980352 60.646875) scale(0.7)"/>
      </g>
     </g>
    </g>
    <g id="ytick_3">
     <g id="line2d_17">
      <path d="M 57.192344 83.721835 
L 615.192344 83.721835 
" clip-path="url(#p435ec12f3c)" style="fill: none; stroke-dasharray: 2.96,1.28; stroke-dashoffset: 0; stroke: #808080; stroke-opacity: 0.2; stroke-width: 0.8"/>
     </g>
     <g id="line2d_18">
      <g>
       <use xlink:href="#mfcb1da0047" x="57.192344" y="83.721835" style="stroke: #000000; stroke-width: 0.8"/>
      </g>
     </g>
     <g id="text_10">
      <!-- $\mathdefault{10^{-4}}$ -->
      <g transform="translate(24.852344 89.924491) scale(0.14 -0.14)">
       <use xlink:href="#TimesNewRomanPSMT-31" transform="translate(0 0.582813)"/>
       <use xlink:href="#TimesNewRomanPSMT-30" transform="translate(50 0.582813)"/>
       <use xlink:href="#TimesNewRomanPSMT-2212" transform="translate(101.502813 60.695312) scale(0.7)"/>
       <use xlink:href="#TimesNewRomanPSMT-34" transform="translate(140.980352 60.695312) scale(0.7)"/>
      </g>
     </g>
    </g>
    <g id="ytick_4">
     <g id="line2d_19">
      <defs>
       <path id="me53fecd470" d="M 0 0 
L -2 0 
" style="stroke: #000000; stroke-width: 0.6"/>
      </defs>
      <g>
       <use xlink:href="#me53fecd470" x="57.192344" y="333.450765" style="stroke: #000000; stroke-width: 0.6"/>
      </g>
     </g>
    </g>
    <g id="ytick_5">
     <g id="line2d_20">
      <g>
       <use xlink:href="#me53fecd470" x="57.192344" y="324.857288" style="stroke: #000000; stroke-width: 0.6"/>
      </g>
     </g>
    </g>
    <g id="ytick_6">
     <g id="line2d_21">
      <g>
       <use xlink:href="#me53fecd470" x="57.192344" y="317.591607" style="stroke: #000000; stroke-width: 0.6"/>
      </g>
     </g>
    </g>
    <g id="ytick_7">
     <g id="line2d_22">
      <g>
       <use xlink:href="#me53fecd470" x="57.192344" y="311.297788" style="stroke: #000000; stroke-width: 0.6"/>
      </g>
     </g>
    </g>
    <g id="ytick_8">
     <g id="line2d_23">
      <g>
       <use xlink:href="#me53fecd470" x="57.192344" y="305.746246" style="stroke: #000000; stroke-width: 0.6"/>
      </g>
     </g>
    </g>
    <g id="ytick_9">
     <g id="line2d_24">
      <g>
       <use xlink:href="#me53fecd470" x="57.192344" y="268.109679" style="stroke: #000000; stroke-width: 0.6"/>
      </g>
     </g>
    </g>
    <g id="ytick_10">
     <g id="line2d_25">
      <g>
       <use xlink:href="#me53fecd470" x="57.192344" y="248.998637" style="stroke: #000000; stroke-width: 0.6"/>
      </g>
     </g>
    </g>
    <g id="ytick_11">
     <g id="line2d_26">
      <g>
       <use xlink:href="#me53fecd470" x="57.192344" y="235.439137" style="stroke: #000000; stroke-width: 0.6"/>
      </g>
     </g>
    </g>
    <g id="ytick_12">
     <g id="line2d_27">
      <g>
       <use xlink:href="#me53fecd470" x="57.192344" y="224.921571" style="stroke: #000000; stroke-width: 0.6"/>
      </g>
     </g>
    </g>
    <g id="ytick_13">
     <g id="line2d_28">
      <g>
       <use xlink:href="#me53fecd470" x="57.192344" y="216.328094" style="stroke: #000000; stroke-width: 0.6"/>
      </g>
     </g>
    </g>
    <g id="ytick_14">
     <g id="line2d_29">
      <g>
       <use xlink:href="#me53fecd470" x="57.192344" y="209.062413" style="stroke: #000000; stroke-width: 0.6"/>
      </g>
     </g>
    </g>
    <g id="ytick_15">
     <g id="line2d_30">
      <g>
       <use xlink:href="#me53fecd470" x="57.192344" y="202.768594" style="stroke: #000000; stroke-width: 0.6"/>
      </g>
     </g>
    </g>
    <g id="ytick_16">
     <g id="line2d_31">
      <g>
       <use xlink:href="#me53fecd470" x="57.192344" y="197.217052" style="stroke: #000000; stroke-width: 0.6"/>
      </g>
     </g>
    </g>
    <g id="ytick_17">
     <g id="line2d_32">
      <g>
       <use xlink:href="#me53fecd470" x="57.192344" y="159.580486" style="stroke: #000000; stroke-width: 0.6"/>
      </g>
     </g>
    </g>
    <g id="ytick_18">
     <g id="line2d_33">
      <g>
       <use xlink:href="#me53fecd470" x="57.192344" y="140.469444" style="stroke: #000000; stroke-width: 0.6"/>
      </g>
     </g>
    </g>
    <g id="ytick_19">
     <g id="line2d_34">
      <g>
       <use xlink:href="#me53fecd470" x="57.192344" y="126.909943" style="stroke: #000000; stroke-width: 0.6"/>
      </g>
     </g>
    </g>
    <g id="ytick_20">
     <g id="line2d_35">
      <g>
       <use xlink:href="#me53fecd470" x="57.192344" y="116.392378" style="stroke: #000000; stroke-width: 0.6"/>
      </g>
     </g>
    </g>
    <g id="ytick_21">
     <g id="line2d_36">
      <g>
       <use xlink:href="#me53fecd470" x="57.192344" y="107.798901" style="stroke: #000000; stroke-width: 0.6"/>
      </g>
     </g>
    </g>
    <g id="ytick_22">
     <g id="line2d_37">
      <g>
       <use xlink:href="#me53fecd470" x="57.192344" y="100.53322" style="stroke: #000000; stroke-width: 0.6"/>
      </g>
     </g>
    </g>
    <g id="ytick_23">
     <g id="line2d_38">
      <g>
       <use xlink:href="#me53fecd470" x="57.192344" y="94.239401" style="stroke: #000000; stroke-width: 0.6"/>
      </g>
     </g>
    </g>
    <g id="ytick_24">
     <g id="line2d_39">
      <g>
       <use xlink:href="#me53fecd470" x="57.192344" y="88.687859" style="stroke: #000000; stroke-width: 0.6"/>
      </g>
     </g>
    </g>
    <g id="ytick_25">
     <g id="line2d_40">
      <g>
       <use xlink:href="#me53fecd470" x="57.192344" y="51.051292" style="stroke: #000000; stroke-width: 0.6"/>
      </g>
     </g>
    </g>
    <g id="ytick_26">
     <g id="line2d_41">
      <g>
       <use xlink:href="#me53fecd470" x="57.192344" y="31.94025" style="stroke: #000000; stroke-width: 0.6"/>
      </g>
     </g>
    </g>
    <g id="ytick_27">
     <g id="line2d_42">
      <g>
       <use xlink:href="#me53fecd470" x="57.192344" y="18.38075" style="stroke: #000000; stroke-width: 0.6"/>
      </g>
     </g>
    </g>
    <g id="ytick_28">
     <g id="line2d_43">
      <g>
       <use xlink:href="#me53fecd470" x="57.192344" y="7.863184" style="stroke: #000000; stroke-width: 0.6"/>
      </g>
     </g>
    </g>
    <g id="text_11">
     <!-- Train Loss (Log Scale) -->
     <g transform="translate(17.615625 242.610234) rotate(-90) scale(0.15 -0.15)">
      <defs>
       <path id="TimesNewRomanPSMT-54" d="M 3703 4238 
L 3750 3244 
L 3631 3244 
Q 3597 3506 3538 3619 
Q 3441 3800 3280 3886 
Q 3119 3972 2856 3972 
L 2259 3972 
L 2259 734 
Q 2259 344 2344 247 
Q 2463 116 2709 116 
L 2856 116 
L 2856 0 
L 1059 0 
L 1059 116 
L 1209 116 
Q 1478 116 1591 278 
Q 1659 378 1659 734 
L 1659 3972 
L 1150 3972 
Q 853 3972 728 3928 
Q 566 3869 450 3700 
Q 334 3531 313 3244 
L 194 3244 
L 244 4238 
L 3703 4238 
z
" transform="scale(0.015625)"/>
       <path id="TimesNewRomanPSMT-72" d="M 1038 2947 
L 1038 2303 
Q 1397 2947 1775 2947 
Q 1947 2947 2059 2842 
Q 2172 2738 2172 2600 
Q 2172 2478 2090 2393 
Q 2009 2309 1897 2309 
Q 1788 2309 1652 2417 
Q 1516 2525 1450 2525 
Q 1394 2525 1328 2463 
Q 1188 2334 1038 2041 
L 1038 669 
Q 1038 431 1097 309 
Q 1138 225 1241 169 
Q 1344 113 1538 113 
L 1538 0 
L 72 0 
L 72 113 
Q 291 113 397 181 
Q 475 231 506 341 
Q 522 394 522 644 
L 522 1753 
Q 522 2253 501 2348 
Q 481 2444 426 2487 
Q 372 2531 291 2531 
Q 194 2531 72 2484 
L 41 2597 
L 906 2947 
L 1038 2947 
z
" transform="scale(0.015625)"/>
       <path id="TimesNewRomanPSMT-61" d="M 1822 413 
Q 1381 72 1269 19 
Q 1100 -59 909 -59 
Q 613 -59 420 144 
Q 228 347 228 678 
Q 228 888 322 1041 
Q 450 1253 767 1440 
Q 1084 1628 1822 1897 
L 1822 2009 
Q 1822 2438 1686 2597 
Q 1550 2756 1291 2756 
Q 1094 2756 978 2650 
Q 859 2544 859 2406 
L 866 2225 
Q 866 2081 792 2003 
Q 719 1925 600 1925 
Q 484 1925 411 2006 
Q 338 2088 338 2228 
Q 338 2497 613 2722 
Q 888 2947 1384 2947 
Q 1766 2947 2009 2819 
Q 2194 2722 2281 2516 
Q 2338 2381 2338 1966 
L 2338 994 
Q 2338 584 2353 492 
Q 2369 400 2405 369 
Q 2441 338 2488 338 
Q 2538 338 2575 359 
Q 2641 400 2828 588 
L 2828 413 
Q 2478 -56 2159 -56 
Q 2006 -56 1915 50 
Q 1825 156 1822 413 
z
M 1822 616 
L 1822 1706 
Q 1350 1519 1213 1441 
Q 966 1303 859 1153 
Q 753 1003 753 825 
Q 753 600 887 451 
Q 1022 303 1197 303 
Q 1434 303 1822 616 
z
" transform="scale(0.015625)"/>
       <path id="TimesNewRomanPSMT-69" d="M 928 4444 
Q 1059 4444 1151 4351 
Q 1244 4259 1244 4128 
Q 1244 3997 1151 3903 
Q 1059 3809 928 3809 
Q 797 3809 703 3903 
Q 609 3997 609 4128 
Q 609 4259 701 4351 
Q 794 4444 928 4444 
z
M 1188 2947 
L 1188 647 
Q 1188 378 1227 289 
Q 1266 200 1342 156 
Q 1419 113 1622 113 
L 1622 0 
L 231 0 
L 231 113 
Q 441 113 512 153 
Q 584 194 626 287 
Q 669 381 669 647 
L 669 1750 
Q 669 2216 641 2353 
Q 619 2453 572 2492 
Q 525 2531 444 2531 
Q 356 2531 231 2484 
L 188 2597 
L 1050 2947 
L 1188 2947 
z
" transform="scale(0.015625)"/>
       <path id="TimesNewRomanPSMT-6e" d="M 1034 2341 
Q 1538 2947 1994 2947 
Q 2228 2947 2397 2830 
Q 2566 2713 2666 2444 
Q 2734 2256 2734 1869 
L 2734 647 
Q 2734 375 2778 278 
Q 2813 200 2889 156 
Q 2966 113 3172 113 
L 3172 0 
L 1756 0 
L 1756 113 
L 1816 113 
Q 2016 113 2095 173 
Q 2175 234 2206 353 
Q 2219 400 2219 647 
L 2219 1819 
Q 2219 2209 2117 2386 
Q 2016 2563 1775 2563 
Q 1403 2563 1034 2156 
L 1034 647 
Q 1034 356 1069 288 
Q 1113 197 1189 155 
Q 1266 113 1500 113 
L 1500 0 
L 84 0 
L 84 113 
L 147 113 
Q 366 113 442 223 
Q 519 334 519 647 
L 519 1709 
Q 519 2225 495 2337 
Q 472 2450 423 2490 
Q 375 2531 294 2531 
Q 206 2531 84 2484 
L 38 2597 
L 900 2947 
L 1034 2947 
L 1034 2341 
z
" transform="scale(0.015625)"/>
       <path id="TimesNewRomanPSMT-20" transform="scale(0.015625)"/>
       <path id="TimesNewRomanPSMT-4c" d="M 3669 1172 
L 3772 1150 
L 3409 0 
L 128 0 
L 128 116 
L 288 116 
Q 556 116 672 291 
Q 738 391 738 753 
L 738 3488 
Q 738 3884 650 3984 
Q 528 4122 288 4122 
L 128 4122 
L 128 4238 
L 2047 4238 
L 2047 4122 
Q 1709 4125 1573 4059 
Q 1438 3994 1388 3894 
Q 1338 3794 1338 3416 
L 1338 753 
Q 1338 494 1388 397 
Q 1425 331 1503 300 
Q 1581 269 1991 269 
L 2300 269 
Q 2788 269 2984 341 
Q 3181 413 3343 595 
Q 3506 778 3669 1172 
z
" transform="scale(0.015625)"/>
       <path id="TimesNewRomanPSMT-73" d="M 2050 2947 
L 2050 1972 
L 1947 1972 
Q 1828 2431 1642 2597 
Q 1456 2763 1169 2763 
Q 950 2763 815 2647 
Q 681 2531 681 2391 
Q 681 2216 781 2091 
Q 878 1963 1175 1819 
L 1631 1597 
Q 2266 1288 2266 781 
Q 2266 391 1970 151 
Q 1675 -88 1309 -88 
Q 1047 -88 709 6 
Q 606 38 541 38 
Q 469 38 428 -44 
L 325 -44 
L 325 978 
L 428 978 
Q 516 541 762 319 
Q 1009 97 1316 97 
Q 1531 97 1667 223 
Q 1803 350 1803 528 
Q 1803 744 1651 891 
Q 1500 1038 1047 1263 
Q 594 1488 453 1669 
Q 313 1847 313 2119 
Q 313 2472 555 2709 
Q 797 2947 1181 2947 
Q 1350 2947 1591 2875 
Q 1750 2828 1803 2828 
Q 1853 2828 1881 2850 
Q 1909 2872 1947 2947 
L 2050 2947 
z
" transform="scale(0.015625)"/>
       <path id="TimesNewRomanPSMT-28" d="M 1988 -1253 
L 1988 -1369 
Q 1516 -1131 1200 -813 
Q 750 -359 506 256 
Q 263 872 263 1534 
Q 263 2503 741 3301 
Q 1219 4100 1988 4444 
L 1988 4313 
Q 1603 4100 1356 3731 
Q 1109 3363 987 2797 
Q 866 2231 866 1616 
Q 866 947 969 400 
Q 1050 -31 1165 -292 
Q 1281 -553 1476 -793 
Q 1672 -1034 1988 -1253 
z
" transform="scale(0.015625)"/>
       <path id="TimesNewRomanPSMT-67" d="M 966 1044 
Q 703 1172 562 1401 
Q 422 1631 422 1909 
Q 422 2334 742 2640 
Q 1063 2947 1563 2947 
Q 1972 2947 2272 2747 
L 2878 2747 
Q 3013 2747 3034 2739 
Q 3056 2731 3066 2713 
Q 3084 2684 3084 2613 
Q 3084 2531 3069 2500 
Q 3059 2484 3036 2475 
Q 3013 2466 2878 2466 
L 2506 2466 
Q 2681 2241 2681 1891 
Q 2681 1491 2375 1206 
Q 2069 922 1553 922 
Q 1341 922 1119 984 
Q 981 866 932 777 
Q 884 688 884 625 
Q 884 572 936 522 
Q 988 472 1138 450 
Q 1225 438 1575 428 
Q 2219 413 2409 384 
Q 2700 344 2873 169 
Q 3047 -6 3047 -263 
Q 3047 -616 2716 -925 
Q 2228 -1381 1444 -1381 
Q 841 -1381 425 -1109 
Q 191 -953 191 -784 
Q 191 -709 225 -634 
Q 278 -519 444 -313 
Q 466 -284 763 25 
Q 600 122 533 198 
Q 466 275 466 372 
Q 466 481 555 628 
Q 644 775 966 1044 
z
M 1509 2797 
Q 1278 2797 1122 2612 
Q 966 2428 966 2047 
Q 966 1553 1178 1281 
Q 1341 1075 1591 1075 
Q 1828 1075 1981 1253 
Q 2134 1431 2134 1813 
Q 2134 2309 1919 2591 
Q 1759 2797 1509 2797 
z
M 934 0 
Q 788 -159 713 -296 
Q 638 -434 638 -550 
Q 638 -700 819 -813 
Q 1131 -1006 1722 -1006 
Q 2284 -1006 2551 -807 
Q 2819 -609 2819 -384 
Q 2819 -222 2659 -153 
Q 2497 -84 2016 -72 
Q 1313 -53 934 0 
z
" transform="scale(0.015625)"/>
       <path id="TimesNewRomanPSMT-53" d="M 2934 4334 
L 2934 2869 
L 2819 2869 
Q 2763 3291 2617 3541 
Q 2472 3791 2203 3937 
Q 1934 4084 1647 4084 
Q 1322 4084 1109 3886 
Q 897 3688 897 3434 
Q 897 3241 1031 3081 
Q 1225 2847 1953 2456 
Q 2547 2138 2764 1967 
Q 2981 1797 3098 1565 
Q 3216 1334 3216 1081 
Q 3216 600 2842 251 
Q 2469 -97 1881 -97 
Q 1697 -97 1534 -69 
Q 1438 -53 1133 45 
Q 828 144 747 144 
Q 669 144 623 97 
Q 578 50 556 -97 
L 441 -97 
L 441 1356 
L 556 1356 
Q 638 900 775 673 
Q 913 447 1195 297 
Q 1478 147 1816 147 
Q 2206 147 2432 353 
Q 2659 559 2659 841 
Q 2659 997 2573 1156 
Q 2488 1316 2306 1453 
Q 2184 1547 1640 1851 
Q 1097 2156 867 2337 
Q 638 2519 519 2737 
Q 400 2956 400 3219 
Q 400 3675 750 4004 
Q 1100 4334 1641 4334 
Q 1978 4334 2356 4169 
Q 2531 4091 2603 4091 
Q 2684 4091 2736 4139 
Q 2788 4188 2819 4334 
L 2934 4334 
z
" transform="scale(0.015625)"/>
       <path id="TimesNewRomanPSMT-6c" d="M 1184 4444 
L 1184 647 
Q 1184 378 1223 290 
Q 1263 203 1344 158 
Q 1425 113 1647 113 
L 1647 0 
L 244 0 
L 244 113 
Q 441 113 512 153 
Q 584 194 625 287 
Q 666 381 666 647 
L 666 3247 
Q 666 3731 644 3842 
Q 622 3953 573 3993 
Q 525 4034 450 4034 
Q 369 4034 244 3984 
L 191 4094 
L 1044 4444 
L 1184 4444 
z
" transform="scale(0.015625)"/>
       <path id="TimesNewRomanPSMT-65" d="M 681 1784 
Q 678 1147 991 784 
Q 1303 422 1725 422 
Q 2006 422 2214 576 
Q 2422 731 2563 1106 
L 2659 1044 
Q 2594 616 2278 264 
Q 1963 -88 1488 -88 
Q 972 -88 605 314 
Q 238 716 238 1394 
Q 238 2128 614 2539 
Q 991 2950 1559 2950 
Q 2041 2950 2350 2633 
Q 2659 2316 2659 1784 
L 681 1784 
z
M 681 1966 
L 2006 1966 
Q 1991 2241 1941 2353 
Q 1863 2528 1708 2628 
Q 1553 2728 1384 2728 
Q 1125 2728 920 2526 
Q 716 2325 681 1966 
z
" transform="scale(0.015625)"/>
       <path id="TimesNewRomanPSMT-29" d="M 144 4313 
L 144 4444 
Q 619 4209 934 3891 
Q 1381 3434 1625 2820 
Q 1869 2206 1869 1541 
Q 1869 572 1392 -226 
Q 916 -1025 144 -1369 
L 144 -1253 
Q 528 -1038 776 -670 
Q 1025 -303 1145 264 
Q 1266 831 1266 1447 
Q 1266 2113 1163 2663 
Q 1084 3094 967 3353 
Q 850 3613 656 3853 
Q 463 4094 144 4313 
z
" transform="scale(0.015625)"/>
      </defs>
      <use xlink:href="#TimesNewRomanPSMT-54"/>
      <use xlink:href="#TimesNewRomanPSMT-72" transform="translate(57.583984 0)"/>
      <use xlink:href="#TimesNewRomanPSMT-61" transform="translate(90.884766 0)"/>
      <use xlink:href="#TimesNewRomanPSMT-69" transform="translate(135.269531 0)"/>
      <use xlink:href="#TimesNewRomanPSMT-6e" transform="translate(163.052734 0)"/>
      <use xlink:href="#TimesNewRomanPSMT-20" transform="translate(213.052734 0)"/>
      <use xlink:href="#TimesNewRomanPSMT-4c" transform="translate(238.052734 0)"/>
      <use xlink:href="#TimesNewRomanPSMT-6f" transform="translate(299.136719 0)"/>
      <use xlink:href="#TimesNewRomanPSMT-73" transform="translate(349.136719 0)"/>
      <use xlink:href="#TimesNewRomanPSMT-73" transform="translate(388.052734 0)"/>
      <use xlink:href="#TimesNewRomanPSMT-20" transform="translate(426.96875 0)"/>
      <use xlink:href="#TimesNewRomanPSMT-28" transform="translate(451.96875 0)"/>
      <use xlink:href="#TimesNewRomanPSMT-4c" transform="translate(485.269531 0)"/>
      <use xlink:href="#TimesNewRomanPSMT-6f" transform="translate(546.353516 0)"/>
      <use xlink:href="#TimesNewRomanPSMT-67" transform="translate(596.353516 0)"/>
      <use xlink:href="#TimesNewRomanPSMT-20" transform="translate(646.353516 0)"/>
      <use xlink:href="#TimesNewRomanPSMT-53" transform="translate(671.353516 0)"/>
      <use xlink:href="#TimesNewRomanPSMT-63" transform="translate(726.96875 0)"/>
      <use xlink:href="#TimesNewRomanPSMT-61" transform="translate(771.353516 0)"/>
      <use xlink:href="#TimesNewRomanPSMT-6c" transform="translate(815.738281 0)"/>
      <use xlink:href="#TimesNewRomanPSMT-65" transform="translate(843.521484 0)"/>
      <use xlink:href="#TimesNewRomanPSMT-29" transform="translate(887.90625 0)"/>
     </g>
    </g>
   </g>
   <g id="line2d_44">
    <path d="M 57.192344 86.079934 
L 62.454013 122.912354 
L 67.715682 157.732011 
L 72.977351 187.291349 
L 78.23902 226.32626 
L 83.500689 220.3921 
L 88.762358 248.93519 
L 94.024027 144.519357 
L 99.285696 258.185134 
L 104.547365 234.57262 
L 109.809034 240.522889 
L 115.070703 223.152107 
L 120.332372 248.542791 
L 125.594041 263.181532 
L 130.85571 253.003633 
L 136.117379 273.945422 
L 141.379048 259.106292 
L 146.640717 269.284611 
L 151.902386 258.886636 
L 157.164055 280.690251 
L 162.425724 280.451334 
L 167.687393 277.076717 
L 172.949062 282.329656 
L 178.210731 274.816507 
L 183.4724 280.63161 
L 188.734069 285.029922 
L 193.995738 284.053494 
L 199.257407 276.471885 
L 204.519076 283.287964 
L 209.780745 281.646267 
L 215.042414 277.17186 
L 220.304083 259.760275 
L 225.565753 267.305936 
L 230.827422 287.56541 
L 236.089091 277.181558 
L 241.35076 291.808719 
L 246.612429 293.509568 
L 251.874098 301.600357 
L 257.135767 299.212422 
L 262.397436 293.69951 
L 267.659105 284.095343 
L 272.920774 287.466963 
L 278.182443 299.263547 
L 283.444112 305.337306 
L 288.705781 281.865734 
L 293.96745 319.613656 
L 299.229119 298.74211 
L 304.490788 301.493291 
L 309.752457 291.339504 
L 315.014126 296.526067 
L 320.275795 290.838799 
L 325.537464 298.647978 
L 330.799133 300.133531 
L 336.060802 306.467874 
L 341.322471 307.461427 
L 346.58414 310.220413 
L 351.845809 304.024819 
L 357.107478 306.840937 
L 362.369147 296.499398 
L 367.630816 304.296199 
L 372.892485 296.036351 
L 378.154154 297.228202 
L 383.415823 299.461735 
L 388.677492 306.245417 
L 393.939161 318.015583 
L 399.20083 309.559086 
L 404.462499 309.674945 
L 409.724168 307.986221 
L 414.985837 310.78908 
L 420.247506 310.00599 
L 425.509175 309.85865 
L 430.770844 307.832119 
L 436.032513 307.195061 
L 441.294183 310.131609 
L 446.555852 312.867734 
L 451.817521 314.312994 
L 457.07919 312.617186 
L 462.340859 313.760371 
L 467.602528 317.193168 
L 472.864197 315.207636 
L 478.125866 313.352136 
L 483.387535 318.630618 
L 488.649204 316.527354 
L 493.910873 318.941338 
L 499.172542 318.243443 
L 504.434211 315.836649 
L 509.69588 318.424097 
L 514.957549 315.591994 
L 520.219218 312.228626 
L 525.480887 320.576856 
L 530.742556 316.394294 
L 536.004225 319.590642 
L 541.265894 322.590651 
L 546.527563 323.827409 
L 551.789232 322.820559 
L 557.050901 318.871799 
L 562.31257 324.382832 
L 567.574239 321.844654 
L 572.835908 324.024198 
L 578.097577 324.72 
" clip-path="url(#p435ec12f3c)" style="fill: none; stroke: #0072b2; stroke-opacity: 0.9; stroke-width: 1.5; stroke-linecap: square"/>
   </g>
   <g id="line2d_45">
    <path d="M 57.192344 81.234624 
L 62.454013 106.059332 
L 67.715682 142.457842 
L 72.977351 164.844468 
L 78.23902 180.317409 
L 83.500689 200.475418 
L 88.762358 201.886321 
L 94.024027 227.636765 
L 99.285696 246.843529 
L 104.547365 216.703039 
L 109.809034 253.31332 
L 115.070703 231.391392 
L 120.332372 243.822044 
L 125.594041 250.678673 
L 130.85571 126.46674 
L 136.117379 127.488077 
L 141.379048 271.173323 
L 146.640717 247.079641 
L 151.902386 245.699297 
L 157.164055 216.573595 
L 162.425724 239.346036 
L 167.687393 254.632773 
L 172.949062 241.305479 
L 178.210731 268.586725 
L 183.4724 143.115994 
L 188.734069 281.717994 
L 193.995738 268.316547 
L 199.257407 254.315833 
L 204.519076 273.87156 
L 209.780745 263.591496 
L 215.042414 270.246948 
L 220.304083 257.93904 
L 225.565753 284.046196 
L 230.827422 267.952544 
L 236.089091 267.835411 
L 241.35076 255.268575 
L 246.612429 278.211315 
L 251.874098 225.631463 
L 257.135767 285.008791 
L 262.397436 283.936555 
L 267.659105 279.126563 
L 272.920774 269.978587 
L 278.182443 279.252492 
L 283.444112 289.755794 
L 288.705781 187.263994 
L 293.96745 293.795975 
L 299.229119 267.14034 
L 304.490788 273.202959 
L 309.752457 173.200318 
L 315.014126 281.748521 
L 320.275795 281.070145 
L 325.537464 280.739808 
L 330.799133 287.030826 
L 336.060802 287.338771 
L 341.322471 288.888806 
L 346.58414 288.492672 
L 351.845809 249.016115 
L 357.107478 242.82662 
L 362.369147 225.477378 
L 367.630816 230.469926 
L 372.892485 246.821791 
L 378.154154 254.073561 
L 383.415823 260.521116 
L 388.677492 263.329327 
L 393.939161 264.464542 
L 399.20083 265.84811 
L 404.462499 267.269858 
L 409.724168 268.833635 
L 414.985837 267.750651 
L 420.247506 269.776718 
L 425.509175 276.91762 
L 430.770844 284.8302 
L 436.032513 289.611387 
L 441.294183 292.080581 
L 446.555852 293.688079 
L 451.817521 296.185518 
L 457.07919 293.786175 
L 462.340859 295.688448 
L 467.602528 297.317249 
L 472.864197 293.232214 
L 478.125866 292.429407 
L 483.387535 297.788468 
L 488.649204 297.594584 
L 493.910873 296.790926 
L 499.172542 299.495207 
L 504.434211 299.683269 
L 509.69588 298.059874 
L 514.957549 297.512008 
L 520.219218 297.779477 
L 525.480887 302.077057 
L 530.742556 300.551004 
L 536.004225 302.737796 
L 541.265894 301.090837 
L 546.527563 301.240969 
L 551.789232 302.223827 
L 557.050901 306.515807 
L 562.31257 304.932663 
L 567.574239 300.737177 
L 572.835908 306.673171 
L 578.097577 304.826844 
" clip-path="url(#p435ec12f3c)" style="fill: none; stroke: #d55e00; stroke-opacity: 0.9; stroke-width: 1.5; stroke-linecap: square"/>
   </g>
   <g id="line2d_46">
    <path d="M 57.192344 22.32 
L 62.454013 52.986832 
L 67.715682 76.196611 
L 72.977351 86.047904 
L 78.23902 112.308465 
L 83.500689 108.313165 
L 88.762358 87.025031 
L 94.024027 108.761201 
L 99.285696 99.36848 
L 104.547365 146.52129 
L 109.809034 142.54304 
L 115.070703 146.961356 
L 120.332372 108.23068 
L 125.594041 150.375664 
L 130.85571 112.444241 
L 136.117379 159.590002 
L 141.379048 171.626996 
L 146.640717 168.939179 
L 151.902386 163.032225 
L 157.164055 123.167768 
L 162.425724 125.242757 
L 167.687393 157.242056 
L 172.949062 185.489187 
L 178.210731 146.793914 
L 183.4724 181.354297 
L 188.734069 169.21097 
L 193.995738 189.985904 
L 199.257407 200.420475 
L 204.519076 186.959934 
L 209.780745 181.62152 
L 215.042414 185.663322 
L 220.304083 180.912796 
L 225.565753 187.755715 
L 230.827422 199.096154 
L 236.089091 192.501923 
L 241.35076 199.14335 
L 246.612429 186.359028 
L 251.874098 199.814501 
L 257.135767 202.874059 
L 262.397436 184.250103 
L 267.659105 197.684535 
L 272.920774 199.434049 
L 278.182443 130.191114 
L 283.444112 208.967937 
L 288.705781 201.93235 
L 293.96745 200.975773 
L 299.229119 196.108735 
L 304.490788 200.543503 
L 309.752457 187.333145 
L 315.014126 215.306885 
L 320.275795 126.796891 
L 325.537464 190.097896 
L 330.799133 192.2387 
L 336.060802 126.206573 
L 341.322471 121.367003 
L 346.58414 203.044328 
L 351.845809 226.380509 
L 357.107478 208.67398 
L 362.369147 205.280095 
L 367.630816 224.547189 
L 372.892485 123.550289 
L 378.154154 228.194563 
L 383.415823 210.37451 
L 388.677492 209.053582 
L 393.939161 213.677976 
L 399.20083 217.931748 
L 404.462499 221.935973 
L 409.724168 220.386954 
L 414.985837 213.015303 
L 420.247506 207.518897 
L 425.509175 220.064684 
L 430.770844 234.981915 
L 436.032513 218.782855 
L 441.294183 211.501899 
L 446.555852 213.018609 
L 451.817521 211.664093 
L 457.07919 228.973755 
L 462.340859 244.857791 
L 467.602528 223.850563 
L 472.864197 201.491527 
L 478.125866 203.37125 
L 483.387535 204.393555 
L 488.649204 198.277323 
L 493.910873 204.656754 
L 499.172542 199.069711 
L 504.434211 197.369523 
L 509.69588 198.1443 
L 514.957549 196.904936 
L 520.219218 200.270524 
L 525.480887 197.314969 
L 530.742556 195.266784 
L 536.004225 207.667333 
L 541.265894 196.756211 
L 546.527563 198.401652 
L 551.789232 196.88538 
L 557.050901 195.893398 
L 562.31257 200.39899 
L 567.574239 208.059961 
L 572.835908 197.235434 
L 578.097577 204.366317 
" clip-path="url(#p435ec12f3c)" style="fill: none; stroke-dasharray: 5.55,2.4; stroke-dashoffset: 0; stroke: #d55e00; stroke-opacity: 0.9; stroke-width: 1.5"/>
   </g>
   <g id="line2d_47">
    <path d="M 57.192344 23.475031 
L 62.454013 57.401353 
L 67.715682 63.783797 
L 72.977351 83.050684 
L 78.23902 77.133362 
L 83.500689 99.842858 
L 88.762358 104.517998 
L 94.024027 104.892973 
L 99.285696 125.9306 
L 104.547365 129.971368 
L 109.809034 113.77261 
L 115.070703 127.257457 
L 120.332372 134.241559 
L 125.594041 129.85913 
L 130.85571 113.047926 
L 136.117379 140.585922 
L 141.379048 152.313217 
L 146.640717 123.763325 
L 151.902386 136.477531 
L 157.164055 158.292968 
L 162.425724 155.772464 
L 167.687393 111.017489 
L 172.949062 147.523788 
L 178.210731 160.400285 
L 183.4724 175.520668 
L 188.734069 160.835163 
L 193.995738 173.344347 
L 199.257407 106.628418 
L 204.519076 158.491964 
L 209.780745 171.11867 
L 215.042414 165.164162 
L 220.304083 130.109558 
L 225.565753 176.394792 
L 230.827422 165.398984 
L 236.089091 162.77262 
L 241.35076 182.695861 
L 246.612429 171.140642 
L 251.874098 125.300938 
L 257.135767 118.346808 
L 262.397436 115.755784 
L 267.659105 164.628027 
L 272.920774 191.366152 
L 278.182443 117.632204 
L 283.444112 161.488521 
L 288.705781 150.346082 
L 293.96745 188.613112 
L 299.229119 181.50965 
L 304.490788 190.300063 
L 309.752457 203.02447 
L 315.014126 166.159537 
L 320.275795 195.635977 
L 325.537464 204.376507 
L 330.799133 199.307339 
L 336.060802 208.175798 
L 341.322471 173.477734 
L 346.58414 188.579345 
L 351.845809 181.757138 
L 357.107478 190.375586 
L 362.369147 204.939051 
L 367.630816 205.462909 
L 372.892485 206.316509 
L 378.154154 194.007704 
L 383.415823 216.505979 
L 388.677492 188.208815 
L 393.939161 177.415788 
L 399.20083 196.778396 
L 404.462499 198.998387 
L 409.724168 191.165416 
L 414.985837 213.229324 
L 420.247506 190.545391 
L 425.509175 184.86618 
L 430.770844 197.047923 
L 436.032513 195.331555 
L 441.294183 143.428427 
L 446.555852 215.540458 
L 451.817521 217.402261 
L 457.07919 213.963467 
L 462.340859 192.141795 
L 467.602528 210.137222 
L 472.864197 216.058123 
L 478.125866 216.661316 
L 483.387535 213.663478 
L 488.649204 195.559475 
L 493.910873 216.544174 
L 499.172542 211.76066 
L 504.434211 170.456591 
L 509.69588 215.501142 
L 514.957549 212.500424 
L 520.219218 212.811164 
L 525.480887 211.446685 
L 530.742556 208.698868 
L 536.004225 182.916761 
L 541.265894 216.772188 
L 546.527563 218.028515 
L 551.789232 221.502259 
L 557.050901 225.013278 
L 562.31257 211.299643 
L 567.574239 221.85241 
L 572.835908 218.671032 
L 578.097577 217.652952 
L 583.359246 220.408837 
L 588.620915 232.289713 
" clip-path="url(#p435ec12f3c)" style="fill: none; stroke-dasharray: 5.55,2.4; stroke-dashoffset: 0; stroke: #0072b2; stroke-opacity: 0.9; stroke-width: 1.5"/>
   </g>
   <g id="patch_3">
    <path d="M 57.192344 339.84 
L 57.192344 7.2 
" style="fill: none; stroke: #000000; stroke-width: 0.8; stroke-linejoin: miter; stroke-linecap: square"/>
   </g>
   <g id="patch_4">
    <path d="M 615.192344 339.84 
L 615.192344 7.2 
" style="fill: none; stroke: #000000; stroke-width: 0.8; stroke-linejoin: miter; stroke-linecap: square"/>
   </g>
   <g id="patch_5">
    <path d="M 57.192344 339.84 
L 615.192344 339.84 
" style="fill: none; stroke: #000000; stroke-width: 0.8; stroke-linejoin: miter; stroke-linecap: square"/>
   </g>
   <g id="patch_6">
    <path d="M 57.192344 7.2 
L 615.192344 7.2 
" style="fill: none; stroke: #000000; stroke-width: 0.8; stroke-linejoin: miter; stroke-linecap: square"/>
   </g>
   <g id="legend_1">
    <g id="patch_7">
     <path d="M 337.565781 120.617188 
L 604.692344 120.617188 
Q 607.692344 120.617188 607.692344 117.617188 
L 607.692344 17.7 
Q 607.692344 14.7 604.692344 14.7 
L 337.565781 14.7 
Q 334.565781 14.7 334.565781 17.7 
L 334.565781 117.617188 
Q 334.565781 120.617188 337.565781 120.617188 
z
" style="fill: #ffffff; opacity: 0.8; stroke: #cccccc; stroke-linejoin: miter"/>
    </g>
    <g id="text_12">
     <!-- Model -->
     <g transform="translate(458.074375 27.64375) scale(0.1 -0.1)">
      <defs>
       <path id="TimesNewRomanPSMT-4d" d="M 2619 0 
L 981 3566 
L 981 734 
Q 981 344 1066 247 
Q 1181 116 1431 116 
L 1581 116 
L 1581 0 
L 106 0 
L 106 116 
L 256 116 
Q 525 116 638 278 
Q 706 378 706 734 
L 706 3503 
Q 706 3784 644 3909 
Q 600 4000 483 4061 
Q 366 4122 106 4122 
L 106 4238 
L 1306 4238 
L 2844 922 
L 4356 4238 
L 5556 4238 
L 5556 4122 
L 5409 4122 
Q 5138 4122 5025 3959 
Q 4956 3859 4956 3503 
L 4956 734 
Q 4956 344 5044 247 
Q 5159 116 5409 116 
L 5556 116 
L 5556 0 
L 3756 0 
L 3756 116 
L 3906 116 
Q 4178 116 4288 278 
Q 4356 378 4356 734 
L 4356 3566 
L 2722 0 
L 2619 0 
z
" transform="scale(0.015625)"/>
       <path id="TimesNewRomanPSMT-64" d="M 2222 322 
Q 2013 103 1813 7 
Q 1613 -88 1381 -88 
Q 913 -88 563 304 
Q 213 697 213 1313 
Q 213 1928 600 2439 
Q 988 2950 1597 2950 
Q 1975 2950 2222 2709 
L 2222 3238 
Q 2222 3728 2198 3840 
Q 2175 3953 2125 3993 
Q 2075 4034 2000 4034 
Q 1919 4034 1784 3984 
L 1744 4094 
L 2597 4444 
L 2738 4444 
L 2738 1134 
Q 2738 631 2761 520 
Q 2784 409 2836 365 
Q 2888 322 2956 322 
Q 3041 322 3181 375 
L 3216 266 
L 2366 -88 
L 2222 -88 
L 2222 322 
z
M 2222 541 
L 2222 2016 
Q 2203 2228 2109 2403 
Q 2016 2578 1861 2667 
Q 1706 2756 1559 2756 
Q 1284 2756 1069 2509 
Q 784 2184 784 1559 
Q 784 928 1059 592 
Q 1334 256 1672 256 
Q 1956 256 2222 541 
z
" transform="scale(0.015625)"/>
      </defs>
      <use xlink:href="#TimesNewRomanPSMT-4d"/>
      <use xlink:href="#TimesNewRomanPSMT-6f" transform="translate(88.916016 0)"/>
      <use xlink:href="#TimesNewRomanPSMT-64" transform="translate(138.916016 0)"/>
      <use xlink:href="#TimesNewRomanPSMT-65" transform="translate(188.916016 0)"/>
      <use xlink:href="#TimesNewRomanPSMT-6c" transform="translate(233.300781 0)"/>
     </g>
    </g>
    <g id="line2d_48">
     <path d="M 340.565781 42.532812 
L 355.565781 42.532812 
L 370.565781 42.532812 
" style="fill: none; stroke: #0072b2; stroke-opacity: 0.9; stroke-width: 1.5; stroke-linecap: square"/>
    </g>
    <g id="text_13">
     <!-- RevIN-CNN-iTransformer-BiLSTM -->
     <g transform="translate(382.565781 47.782812) scale(0.15 -0.15)">
      <defs>
       <path id="TimesNewRomanPSMT-52" d="M 4325 0 
L 3194 0 
L 1759 1981 
Q 1600 1975 1500 1975 
Q 1459 1975 1412 1976 
Q 1366 1978 1316 1981 
L 1316 750 
Q 1316 350 1403 253 
Q 1522 116 1759 116 
L 1925 116 
L 1925 0 
L 109 0 
L 109 116 
L 269 116 
Q 538 116 653 291 
Q 719 388 719 750 
L 719 3488 
Q 719 3888 631 3984 
Q 509 4122 269 4122 
L 109 4122 
L 109 4238 
L 1653 4238 
Q 2328 4238 2648 4139 
Q 2969 4041 3192 3777 
Q 3416 3513 3416 3147 
Q 3416 2756 3161 2468 
Q 2906 2181 2372 2063 
L 3247 847 
Q 3547 428 3762 290 
Q 3978 153 4325 116 
L 4325 0 
z
M 1316 2178 
Q 1375 2178 1419 2176 
Q 1463 2175 1491 2175 
Q 2097 2175 2405 2437 
Q 2713 2700 2713 3106 
Q 2713 3503 2464 3751 
Q 2216 4000 1806 4000 
Q 1625 4000 1316 3941 
L 1316 2178 
z
" transform="scale(0.015625)"/>
       <path id="TimesNewRomanPSMT-76" d="M 53 2863 
L 1400 2863 
L 1400 2747 
L 1313 2747 
Q 1191 2747 1127 2687 
Q 1063 2628 1063 2528 
Q 1063 2419 1128 2269 
L 1794 688 
L 2463 2328 
Q 2534 2503 2534 2594 
Q 2534 2638 2509 2666 
Q 2475 2713 2422 2730 
Q 2369 2747 2206 2747 
L 2206 2863 
L 3141 2863 
L 3141 2747 
Q 2978 2734 2916 2681 
Q 2806 2588 2719 2369 
L 1703 -88 
L 1575 -88 
L 553 2328 
Q 484 2497 421 2570 
Q 359 2644 263 2694 
Q 209 2722 53 2747 
L 53 2863 
z
" transform="scale(0.015625)"/>
       <path id="TimesNewRomanPSMT-49" d="M 1975 116 
L 1975 0 
L 159 0 
L 159 116 
L 309 116 
Q 572 116 691 269 
Q 766 369 766 750 
L 766 3488 
Q 766 3809 725 3913 
Q 694 3991 597 4047 
Q 459 4122 309 4122 
L 159 4122 
L 159 4238 
L 1975 4238 
L 1975 4122 
L 1822 4122 
Q 1563 4122 1444 3969 
Q 1366 3869 1366 3488 
L 1366 750 
Q 1366 428 1406 325 
Q 1438 247 1538 191 
Q 1672 116 1822 116 
L 1975 116 
z
" transform="scale(0.015625)"/>
       <path id="TimesNewRomanPSMT-4e" d="M -84 4238 
L 1066 4238 
L 3656 1059 
L 3656 3503 
Q 3656 3894 3569 3991 
Q 3453 4122 3203 4122 
L 3056 4122 
L 3056 4238 
L 4531 4238 
L 4531 4122 
L 4381 4122 
Q 4113 4122 4000 3959 
Q 3931 3859 3931 3503 
L 3931 -69 
L 3819 -69 
L 1025 3344 
L 1025 734 
Q 1025 344 1109 247 
Q 1228 116 1475 116 
L 1625 116 
L 1625 0 
L 150 0 
L 150 116 
L 297 116 
Q 569 116 681 278 
Q 750 378 750 734 
L 750 3681 
Q 566 3897 470 3965 
Q 375 4034 191 4094 
Q 100 4122 -84 4122 
L -84 4238 
z
" transform="scale(0.015625)"/>
       <path id="TimesNewRomanPSMT-2d" d="M 259 1672 
L 1875 1672 
L 1875 1200 
L 259 1200 
L 259 1672 
z
" transform="scale(0.015625)"/>
       <path id="TimesNewRomanPSMT-43" d="M 3853 4334 
L 3950 2894 
L 3853 2894 
Q 3659 3541 3300 3825 
Q 2941 4109 2438 4109 
Q 2016 4109 1675 3895 
Q 1334 3681 1139 3212 
Q 944 2744 944 2047 
Q 944 1472 1128 1050 
Q 1313 628 1683 403 
Q 2053 178 2528 178 
Q 2941 178 3256 354 
Q 3572 531 3950 1056 
L 4047 994 
Q 3728 428 3303 165 
Q 2878 -97 2294 -97 
Q 1241 -97 663 684 
Q 231 1266 231 2053 
Q 231 2688 515 3219 
Q 800 3750 1298 4042 
Q 1797 4334 2388 4334 
Q 2847 4334 3294 4109 
Q 3425 4041 3481 4041 
Q 3566 4041 3628 4100 
Q 3709 4184 3744 4334 
L 3853 4334 
z
" transform="scale(0.015625)"/>
       <path id="TimesNewRomanPSMT-66" d="M 1319 2638 
L 1319 756 
Q 1319 356 1406 250 
Q 1522 113 1716 113 
L 1975 113 
L 1975 0 
L 266 0 
L 266 113 
L 394 113 
Q 519 113 622 175 
Q 725 238 764 344 
Q 803 450 803 756 
L 803 2638 
L 247 2638 
L 247 2863 
L 803 2863 
L 803 3050 
Q 803 3478 940 3775 
Q 1078 4072 1361 4255 
Q 1644 4438 1997 4438 
Q 2325 4438 2600 4225 
Q 2781 4084 2781 3909 
Q 2781 3816 2700 3733 
Q 2619 3650 2525 3650 
Q 2453 3650 2373 3701 
Q 2294 3753 2178 3923 
Q 2063 4094 1966 4153 
Q 1869 4213 1750 4213 
Q 1606 4213 1506 4136 
Q 1406 4059 1362 3898 
Q 1319 3738 1319 3069 
L 1319 2863 
L 2056 2863 
L 2056 2638 
L 1319 2638 
z
" transform="scale(0.015625)"/>
       <path id="TimesNewRomanPSMT-6d" d="M 1050 2338 
Q 1363 2650 1419 2697 
Q 1559 2816 1721 2881 
Q 1884 2947 2044 2947 
Q 2313 2947 2506 2790 
Q 2700 2634 2766 2338 
Q 3088 2713 3309 2830 
Q 3531 2947 3766 2947 
Q 3994 2947 4170 2830 
Q 4347 2713 4450 2447 
Q 4519 2266 4519 1878 
L 4519 647 
Q 4519 378 4559 278 
Q 4591 209 4675 161 
Q 4759 113 4950 113 
L 4950 0 
L 3538 0 
L 3538 113 
L 3597 113 
Q 3781 113 3884 184 
Q 3956 234 3988 344 
Q 4000 397 4000 647 
L 4000 1878 
Q 4000 2228 3916 2372 
Q 3794 2572 3525 2572 
Q 3359 2572 3192 2489 
Q 3025 2406 2788 2181 
L 2781 2147 
L 2788 2013 
L 2788 647 
Q 2788 353 2820 281 
Q 2853 209 2943 161 
Q 3034 113 3253 113 
L 3253 0 
L 1806 0 
L 1806 113 
Q 2044 113 2133 169 
Q 2222 225 2256 338 
Q 2272 391 2272 647 
L 2272 1878 
Q 2272 2228 2169 2381 
Q 2031 2581 1784 2581 
Q 1616 2581 1450 2491 
Q 1191 2353 1050 2181 
L 1050 647 
Q 1050 366 1089 281 
Q 1128 197 1204 155 
Q 1281 113 1516 113 
L 1516 0 
L 100 0 
L 100 113 
Q 297 113 375 155 
Q 453 197 493 289 
Q 534 381 534 647 
L 534 1741 
Q 534 2213 506 2350 
Q 484 2453 437 2492 
Q 391 2531 309 2531 
Q 222 2531 100 2484 
L 53 2597 
L 916 2947 
L 1050 2947 
L 1050 2338 
z
" transform="scale(0.015625)"/>
       <path id="TimesNewRomanPSMT-42" d="M 2956 2163 
Q 3397 2069 3616 1863 
Q 3919 1575 3919 1159 
Q 3919 844 3719 555 
Q 3519 266 3170 133 
Q 2822 0 2106 0 
L 106 0 
L 106 116 
L 266 116 
Q 531 116 647 284 
Q 719 394 719 750 
L 719 3488 
Q 719 3881 628 3984 
Q 506 4122 266 4122 
L 106 4122 
L 106 4238 
L 1938 4238 
Q 2450 4238 2759 4163 
Q 3228 4050 3475 3764 
Q 3722 3478 3722 3106 
Q 3722 2788 3528 2536 
Q 3334 2284 2956 2163 
z
M 1319 2331 
Q 1434 2309 1582 2298 
Q 1731 2288 1909 2288 
Q 2366 2288 2595 2386 
Q 2825 2484 2947 2687 
Q 3069 2891 3069 3131 
Q 3069 3503 2766 3765 
Q 2463 4028 1881 4028 
Q 1569 4028 1319 3959 
L 1319 2331 
z
M 1319 306 
Q 1681 222 2034 222 
Q 2600 222 2897 476 
Q 3194 731 3194 1106 
Q 3194 1353 3059 1581 
Q 2925 1809 2622 1940 
Q 2319 2072 1872 2072 
Q 1678 2072 1540 2065 
Q 1403 2059 1319 2044 
L 1319 306 
z
" transform="scale(0.015625)"/>
      </defs>
      <use xlink:href="#TimesNewRomanPSMT-52"/>
      <use xlink:href="#TimesNewRomanPSMT-65" transform="translate(66.699219 0)"/>
      <use xlink:href="#TimesNewRomanPSMT-76" transform="translate(111.083984 0)"/>
      <use xlink:href="#TimesNewRomanPSMT-49" transform="translate(161.083984 0)"/>
      <use xlink:href="#TimesNewRomanPSMT-4e" transform="translate(194.384766 0)"/>
      <use xlink:href="#TimesNewRomanPSMT-2d" transform="translate(266.601562 0)"/>
      <use xlink:href="#TimesNewRomanPSMT-43" transform="translate(299.902344 0)"/>
      <use xlink:href="#TimesNewRomanPSMT-4e" transform="translate(366.601562 0)"/>
      <use xlink:href="#TimesNewRomanPSMT-4e" transform="translate(438.818359 0)"/>
      <use xlink:href="#TimesNewRomanPSMT-2d" transform="translate(511.035156 0)"/>
      <use xlink:href="#TimesNewRomanPSMT-69" transform="translate(544.335938 0)"/>
      <use xlink:href="#TimesNewRomanPSMT-54" transform="translate(572.119141 0)"/>
      <use xlink:href="#TimesNewRomanPSMT-72" transform="translate(629.703125 0)"/>
      <use xlink:href="#TimesNewRomanPSMT-61" transform="translate(663.003906 0)"/>
      <use xlink:href="#TimesNewRomanPSMT-6e" transform="translate(707.388672 0)"/>
      <use xlink:href="#TimesNewRomanPSMT-73" transform="translate(757.388672 0)"/>
      <use xlink:href="#TimesNewRomanPSMT-66" transform="translate(796.304688 0)"/>
      <use xlink:href="#TimesNewRomanPSMT-6f" transform="translate(829.605469 0)"/>
      <use xlink:href="#TimesNewRomanPSMT-72" transform="translate(879.605469 0)"/>
      <use xlink:href="#TimesNewRomanPSMT-6d" transform="translate(912.90625 0)"/>
      <use xlink:href="#TimesNewRomanPSMT-65" transform="translate(990.689453 0)"/>
      <use xlink:href="#TimesNewRomanPSMT-72" transform="translate(1035.074219 0)"/>
      <use xlink:href="#TimesNewRomanPSMT-2d" transform="translate(1066.375 0)"/>
      <use xlink:href="#TimesNewRomanPSMT-42" transform="translate(1099.675781 0)"/>
      <use xlink:href="#TimesNewRomanPSMT-69" transform="translate(1166.375 0)"/>
      <use xlink:href="#TimesNewRomanPSMT-4c" transform="translate(1194.158203 0)"/>
      <use xlink:href="#TimesNewRomanPSMT-53" transform="translate(1255.242188 0)"/>
      <use xlink:href="#TimesNewRomanPSMT-54" transform="translate(1310.857422 0)"/>
      <use xlink:href="#TimesNewRomanPSMT-4d" transform="translate(1371.941406 0)"/>
     </g>
    </g>
    <g id="line2d_49">
     <path d="M 340.565781 63.741406 
L 355.565781 63.741406 
L 370.565781 63.741406 
" style="fill: none; stroke: #d55e00; stroke-opacity: 0.9; stroke-width: 1.5; stroke-linecap: square"/>
    </g>
    <g id="text_14">
     <!-- RevIN-CNN-Transformer-BiLSTM -->
     <g transform="translate(382.565781 68.991406) scale(0.15 -0.15)">
      <use xlink:href="#TimesNewRomanPSMT-52"/>
      <use xlink:href="#TimesNewRomanPSMT-65" transform="translate(66.699219 0)"/>
      <use xlink:href="#TimesNewRomanPSMT-76" transform="translate(111.083984 0)"/>
      <use xlink:href="#TimesNewRomanPSMT-49" transform="translate(161.083984 0)"/>
      <use xlink:href="#TimesNewRomanPSMT-4e" transform="translate(194.384766 0)"/>
      <use xlink:href="#TimesNewRomanPSMT-2d" transform="translate(266.601562 0)"/>
      <use xlink:href="#TimesNewRomanPSMT-43" transform="translate(299.902344 0)"/>
      <use xlink:href="#TimesNewRomanPSMT-4e" transform="translate(366.601562 0)"/>
      <use xlink:href="#TimesNewRomanPSMT-4e" transform="translate(438.818359 0)"/>
      <use xlink:href="#TimesNewRomanPSMT-2d" transform="translate(511.035156 0)"/>
      <use xlink:href="#TimesNewRomanPSMT-54" transform="translate(544.335938 0)"/>
      <use xlink:href="#TimesNewRomanPSMT-72" transform="translate(601.919922 0)"/>
      <use xlink:href="#TimesNewRomanPSMT-61" transform="translate(635.220703 0)"/>
      <use xlink:href="#TimesNewRomanPSMT-6e" transform="translate(679.605469 0)"/>
      <use xlink:href="#TimesNewRomanPSMT-73" transform="translate(729.605469 0)"/>
      <use xlink:href="#TimesNewRomanPSMT-66" transform="translate(768.521484 0)"/>
      <use xlink:href="#TimesNewRomanPSMT-6f" transform="translate(801.822266 0)"/>
      <use xlink:href="#TimesNewRomanPSMT-72" transform="translate(851.822266 0)"/>
      <use xlink:href="#TimesNewRomanPSMT-6d" transform="translate(885.123047 0)"/>
      <use xlink:href="#TimesNewRomanPSMT-65" transform="translate(962.90625 0)"/>
      <use xlink:href="#TimesNewRomanPSMT-72" transform="translate(1007.291016 0)"/>
      <use xlink:href="#TimesNewRomanPSMT-2d" transform="translate(1038.591797 0)"/>
      <use xlink:href="#TimesNewRomanPSMT-42" transform="translate(1071.892578 0)"/>
      <use xlink:href="#TimesNewRomanPSMT-69" transform="translate(1138.591797 0)"/>
      <use xlink:href="#TimesNewRomanPSMT-4c" transform="translate(1166.375 0)"/>
      <use xlink:href="#TimesNewRomanPSMT-53" transform="translate(1227.458984 0)"/>
      <use xlink:href="#TimesNewRomanPSMT-54" transform="translate(1283.074219 0)"/>
      <use xlink:href="#TimesNewRomanPSMT-4d" transform="translate(1344.158203 0)"/>
     </g>
    </g>
    <g id="line2d_50">
     <path d="M 340.565781 84.95 
L 355.565781 84.95 
L 370.565781 84.95 
" style="fill: none; stroke-dasharray: 5.55,2.4; stroke-dashoffset: 0; stroke: #d55e00; stroke-opacity: 0.9; stroke-width: 1.5"/>
    </g>
    <g id="text_15">
     <!-- Transformer -->
     <g transform="translate(382.565781 90.2) scale(0.15 -0.15)">
      <use xlink:href="#TimesNewRomanPSMT-54"/>
      <use xlink:href="#TimesNewRomanPSMT-72" transform="translate(57.583984 0)"/>
      <use xlink:href="#TimesNewRomanPSMT-61" transform="translate(90.884766 0)"/>
      <use xlink:href="#TimesNewRomanPSMT-6e" transform="translate(135.269531 0)"/>
      <use xlink:href="#TimesNewRomanPSMT-73" transform="translate(185.269531 0)"/>
      <use xlink:href="#TimesNewRomanPSMT-66" transform="translate(224.185547 0)"/>
      <use xlink:href="#TimesNewRomanPSMT-6f" transform="translate(257.486328 0)"/>
      <use xlink:href="#TimesNewRomanPSMT-72" transform="translate(307.486328 0)"/>
      <use xlink:href="#TimesNewRomanPSMT-6d" transform="translate(340.787109 0)"/>
      <use xlink:href="#TimesNewRomanPSMT-65" transform="translate(418.570312 0)"/>
      <use xlink:href="#TimesNewRomanPSMT-72" transform="translate(462.955078 0)"/>
     </g>
    </g>
    <g id="line2d_51">
     <path d="M 340.565781 106.158594 
L 355.565781 106.158594 
L 370.565781 106.158594 
" style="fill: none; stroke-dasharray: 5.55,2.4; stroke-dashoffset: 0; stroke: #0072b2; stroke-opacity: 0.9; stroke-width: 1.5"/>
    </g>
    <g id="text_16">
     <!-- iTransformer -->
     <g transform="translate(382.565781 111.408594) scale(0.15 -0.15)">
      <use xlink:href="#TimesNewRomanPSMT-69"/>
      <use xlink:href="#TimesNewRomanPSMT-54" transform="translate(27.783203 0)"/>
      <use xlink:href="#TimesNewRomanPSMT-72" transform="translate(85.367188 0)"/>
      <use xlink:href="#TimesNewRomanPSMT-61" transform="translate(118.667969 0)"/>
      <use xlink:href="#TimesNewRomanPSMT-6e" transform="translate(163.052734 0)"/>
      <use xlink:href="#TimesNewRomanPSMT-73" transform="translate(213.052734 0)"/>
      <use xlink:href="#TimesNewRomanPSMT-66" transform="translate(251.96875 0)"/>
      <use xlink:href="#TimesNewRomanPSMT-6f" transform="translate(285.269531 0)"/>
      <use xlink:href="#TimesNewRomanPSMT-72" transform="translate(335.269531 0)"/>
      <use xlink:href="#TimesNewRomanPSMT-6d" transform="translate(368.570312 0)"/>
      <use xlink:href="#TimesNewRomanPSMT-65" transform="translate(446.353516 0)"/>
      <use xlink:href="#TimesNewRomanPSMT-72" transform="translate(490.738281 0)"/>
     </g>
    </g>
   </g>
  </g>
 </g>
 <defs>
  <clipPath id="p435ec12f3c">
   <rect x="57.192344" y="7.2" width="558" height="332.64"/>
  </clipPath>
 </defs>
</svg>
